<svg viewBox="0 0 323.14 434.85" xmlns="http://www.w3.org/2000/svg"><path d="m154.27 107.3 19 37-17 73-59-14-7-37z" fill="#674940"/><path d="m133 126.92s11.2 27.19 37.74 28.28c-.46.1-14.46 62.1-14.46 62.1l-59-14-7-37z" opacity=".15"/><path d="m62.27 105.3s-17.33-19.65-8 13c8 28 10-3 10-6s-2-7-2-7z" fill="#674940"/><path d="m144.77 48.8s4 14 4 16 7 24 7 24v18s.94 19.07 0 25c-1.5 9.5-13 25-17 28s-23 12-34 12-25-14-25-14-13-10-16-22c-2.29-9.17-5.16-20.09-6.39-24.73a36.81 36.81 0 0 1 -.92-4.63l-1.69-12.64-13-29 43-32 51 3z" fill="#725247"/><path d="m148.27 80.3s5.83-21.36 13.65-.94a12.83 12.83 0 0 1 .57 1.92c4.48 21.31-5.25 30.9-7.22 23s-7-23.98-7-23.98z" fill="#725247"/><path d="m323.05 377.6a8 8 0 0 0 -1.16-2.4 342.77 342.77 0 0 1 -27.66-54.38c-2.82-7-5.43-14.17-9.44-20.57-.56-.89-1.15-1.76-1.76-2.61v.14l-.09-.28.1.14a223.13 223.13 0 0 0 -.24-48.81c-2.72-25.31-8.77-50.14-15-74.82-2.6-10.26-5.64-21.19-13.7-28-7.34-6.25-17.42-7.9-27-9.31-19.9-2.94-41.86-4.83-61.76-7.77-.31 14 2.22 28.34-4.14 40.81s-18 22.9-31.91 24.73c-14.12 1.87-29-6.11-35.25-18.91-1.25-2.56-2.21-6.82-3.79-9.25l-7.25-5.57c-3.58 1.84-6.49 4.94-10.28 7.37-11.56 7.39-21.47 15.59-32.63 23.44-10.21 7.18-16.77 14.89-21.91 26.59a126.48 126.48 0 0 0 -10.61 53c.12 6.6.76 13.17 1.26 19.74a459.17 459.17 0 0 1 -8.4 128.33c-.54 2.56-.92 5.69 1.07 7.39 1.45 1.24 3.56 1.16 5.46 1 7.08-.52 14.36-1.11 20.72-4.27 3.14-1.57 6-3.73 9.06-5.37 7.9-4.19 18.29-5.67 22.53-13.54 1.69-3.13 2-6.8 2.36-10.35q2.91-32.56 5.83-65.12c.79-8.73 1.57-17.49 3.44-26.06.41-1.86.87-3.71 1.35-5.55.14.14.26.3.4.44a26.32 26.32 0 0 0 7.29 4.65l.35.23 15.59 13.46c5 4.31 10.25 9 12.08 15.34.83 2.84 1.05 6.15 3.29 8.09 1 .92 2.46 1.42 3.38 2.49 1.83 2.11 1 5.4 1.85 8.05s3.41 4.33 5.11 6.55c2.44 3.18 3.08 7.27 3.81 11.3v.65c0 1.81-.1 3.67-.14 5.53l-44.49 20.6c-5.41 2.51-10.94 5-16.85 5.82-1.18.16-2.51.32-3.19 1.29a3.85 3.85 0 0 0 -.51 2.06 29.89 29.89 0 0 0 41.29 28.74c9.31-3.84 16.25-12.16 25.64-15.77 6.13-2.35 12.83-2.51 19.36-3.17 38.51-3.9 73.07-25.61 111.1-32.79l-.82-.17c.6-.09 1.2-.18 1.8-.29a47.15 47.15 0 0 0 5.47-1.28 28.56 28.56 0 0 1 -6.45 1.74c5.67 1.09 11.37 2 17.07 3l17.88 3c9.48 1.59 20.34 2.83 27.68-3.38 1.76-1.52 3.31-3.68 2.81-5.92z" fill="#60151d"/><path d="m207.39 321.1a10.79 10.79 0 0 0 3.16-3c1-1.7 1-3.79.94-5.76q-.51-24.51-.3-49c.07-8.86.28-18 3.87-26.09 4.5-10.13 13.67-17.28 22.5-24a33 33 0 0 0 -24.7 3c-5.83-21.54 2.93-44 11.52-64.64a56.4 56.4 0 0 0 -18.38 32.61 86.76 86.76 0 0 1 12.66-40.64c-7.6 3.55-13 10.76-16.12 18.54s-4.26 16.2-5.36 24.51q-3.21 24.19-6.43 48.39c-2.43-5.07-9.9-4.67-14.95-2.21s-10.05 6.28-15.61 5.51c-1.61-7.12 1.25-14.41 4.22-21.08a449.06 449.06 0 0 1 27.94-53 266 266 0 0 0 -30.52 16.56c6.4-5 8.92-13.72 8.65-21.85s-3.94-15.74-5.13-23.79a38.4 38.4 0 0 1 0-6.3c.88-.52 2.84.38 3.86.51l51.28 6.63c8.58 1.11 20.42 1.84 27.91 6.19 15.47 9 19 28.69 23 46.12 8 35 15 70.61 12.75 106.41-.52 8.43-1.61 16.81-2.87 25.16q-3.66 24.35-9.2 48.35c-8.88-7-21.19-6.92-32.47-6.57a182.37 182.37 0 0 0 -19.74 1.34c-18.17 2.56-35.05 10.53-51.78 18.05q-46.35 20.82-94.2 38a13.07 13.07 0 0 1 -5.54 1.11c-3.36-.33-6-3.32-7-6.56-2.06-6.77-.84-9.92 5.14-12.52 5.3-2.31 10.59-4.65 15.84-7.07q16-7.38 31.68-15.5 31.3-16.23 61-35.37 16.49-10.57 32.38-22.04z" fill="#8e2328"/><path d="m147.69 61.68 3.06 11.79c.06.25.1.57-.12.7a.55.55 0 0 1 -.47 0 7 7 0 0 1 -1.6-1l-11.56-8.3a4.31 4.31 0 0 1 -1-.87 4.08 4.08 0 0 1 -.63-2.26c-.07-1-.07-2-.07-2.93v-10.28a.75.75 0 0 1 .11-.49c.21-.25.62-.13.91 0a23 23 0 0 1 9.58 9.37 21 21 0 0 1 .94 2.5 14.07 14.07 0 0 1 .85 1.77z" fill="#232526" opacity=".3"/><path d="m40.18 62.29a37.1 37.1 0 0 1 -3.18-8.94c-.41-2.38-.36-4.84-1.06-7.15s-2.4-4.57-4.79-4.89a4.74 4.74 0 0 1 3.85-1.67 6.34 6.34 0 0 1 -1.59-3.64c0-1.35 1.38-2.72 2.63-2.2.48.21 1 .66 1.45.32s.22-.76.25-1.18c.18-1.91 3.28-1.49 4.73-2.75 2.53-2.19-1.81-7.14.53-9.55l4.63.57c-.82-.24-.57-1.63.23-1.92a3.08 3.08 0 0 1 2.43.52l2.73 1.45a2.13 2.13 0 0 0 1.52.36 1.87 1.87 0 0 0 1.06-1.54 8.76 8.76 0 0 0 -1.6-7.16 3.77 3.77 0 0 1 4 .92c-.85-1.12.59-2.81 2-2.67s2.43 1.34 3.2 2.52a8.08 8.08 0 0 0 2.76 3.11c1.26.62 3.2 0 3.29-1.38a3.6 3.6 0 0 0 -.71-1.94 14.64 14.64 0 0 1 -1.89-5.48c-.08-.64 0-1.49.62-1.68a1.52 1.52 0 0 1 .89.09l6.69 2.12c1.44-.3.23-2.67.9-4 .55-1.07 2.12-1 3.22-.47s2.26 1.2 3.4.82c.68-.22 1.2-.81 1.89-1 2.15-.64 3.8 2.65 6 2.45a3.17 3.17 0 0 1 1.14-3.91 3.2 3.2 0 0 1 4 .67 5.07 5.07 0 0 1 6.68-1.09c.82.55 1.47 1.35 2.33 1.83a2.08 2.08 0 0 0 2.69-.33l.13-3.5a7.24 7.24 0 0 1 5 4.64c.22.69.41 1.49 1.06 1.82.85.43 1.84-.28 2.35-1.08s.86-1.78 1.67-2.27 2.23.07 2 1c.62-1.19 2.58-.67 3.24.49s.56 2.59.86 3.89 1.4 2.68 2.7 2.4a6.47 6.47 0 0 0 1.18-.51c2.55-1.1 5.12 1.36 6.81 3.56l5 6.46a19.78 19.78 0 0 1 3.13 5 21.14 21.14 0 0 1 1 5.77 226.78 226.78 0 0 0 4.42 30 17.32 17.32 0 0 0 -8.65-8.71 22.5 22.5 0 0 1 -4.49-2.19c-3.87-2.94-4.56-9.82-9.34-10.64-1.67-.28-3.34.34-5 .81-7.06 2-14.6 1.05-21.87 2-7.89 1-15.29 4.33-22.49 7.72-8 3.76-16.17 7.88-21.92 14.61-2.46 2.88-4.48 6.44-4.32 10.23a23.33 23.33 0 0 0 1.78 6.7c1.28 3.6 1.76 7.38 2.89 11-4.6-10.17-9.37-20.27-14.06-30.41z" fill="#232526"/><path d="m220.49 136c8.58 1.11 20.22 2.19 27.91 6.19 16.57 8.61 19 28.69 23 46.12" fill="#8e2328"/></svg>